# xmcd
#
# Track frame offsets: 
#        150
#        22330
#        37485
#        54942
#        80790
#        102672
#        119952
#        142247
#        160425
#        176070
#
# Disc length: 2730 seconds
#
# Revision: 2
# Processed by: cddbd v1.5.2PL0 Copyright (c) Steve Scherf et al.
# Submitted via: ExactAudioCopyFreeDBPlugin 1.0
#
DISCID=a60aa80a
DTITLE=Various Artist - WELCOME TO PLASTIC WORLD
DYEAR=1999
DGENRE=Rock
TTITLE0=SPOOZYS - DIAMOND HEAD
TTITLE1=福富幸弘 - TOP SECRET MAN
TTITLE2=砂原良徳 - ROBOT
TTITLE3=BUFFALO DAUGHTER - CARDS
TTITLE4=立花ハジメ - I AM PLASTICS
TTITLE5=東京スカパラダイスオーケストラ - CARDS
TTITLE6=ファンタスティック・プラスチック・マシーン - WELCOME PLASTICS
TTITLE7=ピチカート・ファイヴ - GOOD
TTITLE8=MOTOCOMPO - DELICIOUS
TTITLE9=SKYLAB - DESOLATE
EXTD=
EXTT0=
EXTT1=
EXTT2=
EXTT3=
EXTT4=
EXTT5=
EXTT6=
EXTT7=
EXTT8=
EXTT9=
PLAYORDER=
